<svg width="144" height="144" viewBox="0 0 144 144" fill="none" xmlns="http://www.w3.org/2000/svg">
<g clip-path="url(#clip0_113_8)">
<path d="M26.4157 121V30H79.9757C88.2957 30 95.3157 30.91 101.036 32.73C106.756 34.55 111.089 37.1067 114.036 40.4C116.982 43.6933 118.456 47.55 118.456 51.97C118.456 57.2567 116.982 61.72 114.036 65.36C111.089 68.9133 106.582 71.3833 100.516 72.77L101.036 70.43C104.849 71.2967 108.446 72.6833 111.826 74.59C115.206 76.41 117.936 78.8367 120.016 81.87C122.182 84.8167 123.266 88.5 123.266 92.92C123.266 98.64 122.009 103.32 119.496 106.96C116.982 110.6 113.689 113.46 109.616 115.54C105.629 117.533 101.296 118.963 96.6157 119.83C92.0224 120.61 87.6024 121 83.3557 121H26.4157ZM52.4157 98.9H83.8757C86.129 98.9 88.1657 98.64 89.9857 98.12C91.8057 97.6 93.2357 96.7767 94.2757 95.65C95.4024 94.5233 95.9657 93.05 95.9657 91.23C95.9657 89.0633 95.229 87.46 93.7557 86.42C92.2824 85.38 90.549 84.6867 88.5557 84.34C86.5624 83.9067 84.7857 83.69 83.2257 83.69H52.4157V98.9ZM52.4157 64.84H78.5457C81.1457 64.84 83.3557 64.6233 85.1757 64.19C87.0824 63.67 88.5124 62.9333 89.4657 61.98C90.5057 61.0267 91.0257 59.77 91.0257 58.21C91.0257 55.9567 89.8124 54.3967 87.3857 53.53C84.959 52.5767 81.9257 52.1 78.2857 52.1H52.4157V64.84Z" fill="black"/>
</g>
<defs>
<clipPath id="clip0_113_8">
<rect width="144" height="144" fill="white"/>
</clipPath>
</defs>
</svg>
