<svg width="144" height="144" viewBox="0 0 144 144" fill="none" xmlns="http://www.w3.org/2000/svg">
<g clip-path="url(#clip0_113_8)">
<path d="M27.117 120V30.4H79.853C88.045 30.4 94.957 31.296 100.589 33.088C106.221 34.88 110.488 37.3973 113.389 40.64C116.29 43.8827 117.741 47.68 117.741 52.032C117.741 57.2373 116.29 61.632 113.389 65.216C110.488 68.7147 106.05 71.1467 100.077 72.512L100.589 70.208C104.344 71.0613 107.885 72.4267 111.213 74.304C114.541 76.096 117.229 78.4853 119.277 81.472C121.41 84.3733 122.477 88 122.477 92.352C122.477 97.984 121.24 102.592 118.765 106.176C116.29 109.76 113.048 112.576 109.037 114.624C105.112 116.587 100.845 117.995 96.237 118.848C91.7143 119.616 87.3623 120 83.181 120H27.117ZM52.717 98.24H83.693C85.9117 98.24 87.917 97.984 89.709 97.472C91.501 96.96 92.909 96.1493 93.933 95.04C95.0423 93.9307 95.597 92.48 95.597 90.688C95.597 88.5547 94.8717 86.976 93.421 85.952C91.9703 84.928 90.2637 84.2453 88.301 83.904C86.3383 83.4773 84.589 83.264 83.053 83.264H52.717V98.24ZM52.717 64.704H78.445C81.005 64.704 83.181 64.4907 84.973 64.064C86.8503 63.552 88.2583 62.8267 89.197 61.888C90.221 60.9493 90.733 59.712 90.733 58.176C90.733 55.9573 89.5383 54.4213 87.149 53.568C84.7597 52.6293 81.773 52.16 78.189 52.16H52.717V64.704Z" fill="white"/>
</g>
<defs>
<clipPath id="clip0_113_8">
<rect width="144" height="144" fill="white"/>
</clipPath>
</defs>
</svg>
